<svg width="211" height="28" viewBox="0 0 211 28" fill="none" xmlns="http://www.w3.org/2000/svg">
<path d="M36.3134 22.5654H33V5.70902H38.1721L41.2662 18.9632L44.3371 5.70902H49.4516V22.5654H46.1382V11.1639C46.1382 10.8361 46.142 10.3787 46.1497 9.79161C46.1574 9.19695 46.1612 8.73952 46.1612 8.41931L42.9402 22.5654H39.4883L36.2903 8.41931C36.2903 8.73952 36.2942 9.19695 36.3019 9.79161C36.3096 10.3787 36.3134 10.8361 36.3134 11.1639V22.5654Z" fill="#272726"/>
<path d="M63.2593 18.906C63.1746 19.6455 62.786 20.3964 62.0933 21.1588C61.0157 22.371 59.5072 22.9771 57.5676 22.9771C55.9667 22.9771 54.5544 22.4663 53.3307 21.4447C52.1069 20.4231 51.495 18.7611 51.495 16.4587C51.495 14.3011 52.0453 12.6468 53.1459 11.4956C54.2542 10.3443 55.6897 9.76874 57.4522 9.76874C58.4989 9.76874 59.4418 9.96315 60.2807 10.352C61.1196 10.7408 61.8123 11.3545 62.3588 12.1931C62.8514 12.9327 63.1708 13.7903 63.317 14.7662C63.4017 15.338 63.4363 16.1614 63.4209 17.2363H54.8084C54.8546 18.4867 55.251 19.3634 55.9975 19.8666C56.4516 20.1792 56.9981 20.3355 57.6369 20.3355C58.3142 20.3355 58.8645 20.1449 59.2878 19.7637C59.5187 19.5578 59.7227 19.2719 59.8997 18.906H63.2593ZM60.0036 15.0864C59.9498 14.2249 59.6842 13.5731 59.207 13.1309C58.7375 12.6811 58.1526 12.4562 57.4522 12.4562C56.6902 12.4562 56.0976 12.6925 55.6743 13.1652C55.2587 13.6379 54.997 14.2783 54.8892 15.0864H60.0036ZM55.732 8.41931L57.9486 5H61.6199L58.1103 8.41931H55.732Z" fill="#272726"/>
<path d="M72.7146 13.5311C72.4375 12.9288 71.8949 12.6277 71.0868 12.6277C70.1478 12.6277 69.5167 12.9288 69.1934 13.5311C69.0164 13.8742 68.9279 14.385 68.9279 15.0635V22.5654H65.5914V10.1233H68.7893V11.9416C69.1973 11.2935 69.5821 10.8323 69.9438 10.5578C70.5827 10.0699 71.41 9.82592 72.426 9.82592C73.3881 9.82592 74.1654 10.0356 74.7581 10.4549C75.2353 10.8437 75.597 11.3431 75.8433 11.953C76.2743 11.2211 76.8092 10.6836 77.448 10.3405C78.1254 9.99746 78.8796 9.82592 79.7109 9.82592C80.265 9.82592 80.8115 9.93266 81.3502 10.1461C81.889 10.3596 82.3777 10.7332 82.8164 11.2668C83.1705 11.7014 83.4091 12.2351 83.5322 12.8679C83.6092 13.2872 83.6477 13.9009 83.6477 14.709L83.6246 22.5654H80.2535V14.629C80.2535 14.1563 80.1765 13.7675 80.0226 13.4625C79.7301 12.8831 79.1913 12.5934 78.4063 12.5934C77.4981 12.5934 76.8708 12.967 76.5245 13.7141C76.3474 14.1105 76.2589 14.587 76.2589 15.1436V22.5654H72.9455V15.1436C72.9455 14.4041 72.8686 13.8666 72.7146 13.5311Z" fill="#272726"/>
<path d="M97.1784 11.6785C98.2405 12.9975 98.7716 14.5565 98.7716 16.3558C98.7716 18.1855 98.2405 19.7522 97.1784 21.0559C96.1162 22.352 94.5038 23 92.341 23C90.1783 23 88.5658 22.352 87.5037 21.0559C86.4416 19.7522 85.9105 18.1855 85.9105 16.3558C85.9105 14.5565 86.4416 12.9975 87.5037 11.6785C88.5658 10.3596 90.1783 9.70013 92.341 9.70013C94.5038 9.70013 96.1162 10.3596 97.1784 11.6785ZM92.3295 12.4562C91.3674 12.4562 90.6247 12.7954 90.1013 13.474C89.5856 14.1449 89.3278 15.1055 89.3278 16.3558C89.3278 17.6061 89.5856 18.5705 90.1013 19.249C90.6247 19.9276 91.3674 20.2668 92.3295 20.2668C93.2916 20.2668 94.0304 19.9276 94.5461 19.249C95.0618 18.5705 95.3196 17.6061 95.3196 16.3558C95.3196 15.1055 95.0618 14.1449 94.5461 13.474C94.0304 12.7954 93.2916 12.4562 92.3295 12.4562Z" fill="#272726"/>
<path d="M104.521 10.1004V22.5654H101.184V10.1004H104.521ZM104.521 5.6061V8.61372H101.184V5.6061H104.521Z" fill="#272726"/>
<path d="M114.046 13.108C112.722 13.108 111.833 13.5349 111.379 14.3888C111.125 14.8691 110.998 15.6086 110.998 16.6074V22.5654H107.684V10.1004H110.824V12.2732C111.332 11.4422 111.775 10.8742 112.152 10.5693C112.768 10.0584 113.568 9.80305 114.554 9.80305C114.615 9.80305 114.665 9.80686 114.704 9.81449C114.75 9.81449 114.846 9.8183 114.992 9.82592V13.1652C114.784 13.1423 114.6 13.1271 114.438 13.1194C114.276 13.1118 114.146 13.108 114.046 13.108Z" fill="#272726"/>
<path d="M127.703 18.906C127.619 19.6455 127.23 20.3964 126.537 21.1588C125.46 22.371 123.951 22.9771 122.012 22.9771C120.411 22.9771 118.998 22.4663 117.775 21.4447C116.551 20.4231 115.939 18.7611 115.939 16.4587C115.939 14.3011 116.489 12.6468 117.59 11.4956C118.698 10.3443 120.134 9.76874 121.896 9.76874C122.943 9.76874 123.886 9.96315 124.725 10.352C125.564 10.7408 126.256 11.3545 126.803 12.1931C127.295 12.9327 127.615 13.7903 127.761 14.7662C127.846 15.338 127.88 16.1614 127.865 17.2363H119.252C119.298 18.4867 119.695 19.3634 120.441 19.8666C120.896 20.1792 121.442 20.3355 122.081 20.3355C122.758 20.3355 123.308 20.1449 123.732 19.7637C123.963 19.5578 124.167 19.2719 124.344 18.906H127.703ZM124.448 15.0864C124.394 14.2249 124.128 13.5731 123.651 13.1309C123.181 12.6811 122.596 12.4562 121.896 12.4562C121.134 12.4562 120.541 12.6925 120.118 13.1652C119.703 13.6379 119.441 14.2783 119.333 15.0864H124.448Z" fill="#272726"/>
<path d="M140.195 22.5654H136.881V5.70902H142.054L145.148 18.9632L148.219 5.70902H153.333V22.5654H150.02V11.1639C150.02 10.8361 150.023 10.3787 150.031 9.79161C150.039 9.19695 150.043 8.73952 150.043 8.41931L146.822 22.5654H143.37L140.172 8.41931C140.172 8.73952 140.176 9.19695 140.183 9.79161C140.191 10.3787 140.195 10.8361 140.195 11.1639V22.5654Z" fill="#272726"/>
<path d="M156.843 11.4498C157.712 10.352 159.206 9.80305 161.322 9.80305C162.7 9.80305 163.924 10.0737 164.993 10.615C166.063 11.1563 166.598 12.1779 166.598 13.6798V19.3977C166.598 19.7942 166.606 20.2745 166.621 20.8386C166.644 21.2656 166.71 21.5553 166.817 21.7078C166.925 21.8602 167.087 21.986 167.302 22.0851V22.5654H163.723C163.623 22.3138 163.554 22.0775 163.516 21.8564C163.477 21.6353 163.446 21.3837 163.423 21.1017C162.969 21.5896 162.446 22.0051 161.853 22.3482C161.145 22.7522 160.345 22.9543 159.452 22.9543C158.313 22.9543 157.37 22.6341 156.623 21.9936C155.884 21.3456 155.515 20.4307 155.515 19.249C155.515 17.7166 156.111 16.6074 157.304 15.9212C157.959 15.5476 158.921 15.2808 160.191 15.1207L161.311 14.9835C161.919 14.9072 162.353 14.8119 162.615 14.6976C163.085 14.4994 163.319 14.1906 163.319 13.7713C163.319 13.2605 163.138 12.9098 162.777 12.7192C162.423 12.521 161.899 12.4219 161.207 12.4219C160.429 12.4219 159.879 12.6125 159.556 12.9936C159.325 13.2757 159.171 13.6569 159.094 14.1372H155.919C155.988 13.047 156.296 12.1512 156.843 11.4498ZM159.29 20.2097C159.598 20.4612 159.975 20.587 160.422 20.587C161.13 20.587 161.78 20.3812 162.373 19.9695C162.973 19.5578 163.285 18.8069 163.308 17.7166V16.5044C163.1 16.6341 162.888 16.7408 162.673 16.8247C162.465 16.9009 162.176 16.9733 161.807 17.0419L161.068 17.1792C160.375 17.3011 159.879 17.4498 159.579 17.6252C159.071 17.9225 158.817 18.3837 158.817 19.0089C158.817 19.5654 158.975 19.9657 159.29 20.2097Z" fill="#272726"/>
<path d="M178.201 10.6722C179.186 11.2973 179.752 12.3723 179.898 13.8971H176.608C176.561 13.4778 176.442 13.1461 176.25 12.9022C175.888 12.46 175.272 12.2389 174.403 12.2389C173.687 12.2389 173.175 12.3494 172.867 12.5705C172.567 12.7916 172.417 13.0508 172.417 13.3482C172.417 13.7217 172.578 13.9924 172.902 14.1601C173.225 14.3355 174.368 14.6366 176.331 15.0635C177.639 15.3685 178.62 15.8297 179.274 16.4473C179.921 17.0724 180.244 17.8539 180.244 18.7916C180.244 20.0267 179.779 21.0368 178.847 21.8221C177.924 22.5997 176.492 22.9886 174.553 22.9886C172.575 22.9886 171.112 22.5769 170.166 21.7535C169.227 20.9225 168.757 19.8666 168.757 18.5858H172.094C172.163 19.1652 172.313 19.5769 172.544 19.8208C172.952 20.2554 173.706 20.4727 174.807 20.4727C175.453 20.4727 175.965 20.3774 176.342 20.1868C176.727 19.9962 176.919 19.7103 176.919 19.3291C176.919 18.9632 176.765 18.6849 176.458 18.4943C176.15 18.3037 175.007 17.9759 173.029 17.5108C171.605 17.1601 170.6 16.7217 170.015 16.1957C169.43 15.6773 169.138 14.9301 169.138 13.9543C169.138 12.803 169.592 11.8158 170.5 10.9924C171.416 10.1614 172.702 9.74587 174.356 9.74587C175.926 9.74587 177.208 10.0546 178.201 10.6722Z" fill="#272726"/>
<path d="M188.453 20.244V22.6798L186.894 22.737C185.339 22.7903 184.277 22.5235 183.708 21.9365C183.338 21.5629 183.154 20.9873 183.154 20.2097V12.5362H181.399V10.2147H183.154V6.73825H186.409V10.2147H188.453V12.5362H186.409V19.1233C186.409 19.6341 186.475 19.9543 186.606 20.0839C186.736 20.2058 187.137 20.2668 187.806 20.2668C187.906 20.2668 188.01 20.2668 188.118 20.2668C188.233 20.2592 188.345 20.2516 188.453 20.244Z" fill="#272726"/>
<path d="M201.337 18.906C201.252 19.6455 200.864 20.3964 200.171 21.1588C199.093 22.371 197.585 22.9771 195.645 22.9771C194.044 22.9771 192.632 22.4663 191.408 21.4447C190.184 20.4231 189.573 18.7611 189.573 16.4587C189.573 14.3011 190.123 12.6468 191.224 11.4956C192.332 10.3443 193.767 9.76874 195.53 9.76874C196.577 9.76874 197.519 9.96315 198.358 10.352C199.197 10.7408 199.89 11.3545 200.436 12.1931C200.929 12.9327 201.248 13.7903 201.395 14.7662C201.479 15.338 201.514 16.1614 201.499 17.2363H192.886C192.932 18.4867 193.329 19.3634 194.075 19.8666C194.529 20.1792 195.076 20.3355 195.714 20.3355C196.392 20.3355 196.942 20.1449 197.365 19.7637C197.596 19.5578 197.8 19.2719 197.977 18.906H201.337ZM198.081 15.0864C198.027 14.2249 197.762 13.5731 197.285 13.1309C196.815 12.6811 196.23 12.4562 195.53 12.4562C194.768 12.4562 194.175 12.6925 193.752 13.1652C193.336 13.6379 193.075 14.2783 192.967 15.0864H198.081Z" fill="#272726"/>
<path d="M210.053 13.108C208.729 13.108 207.841 13.5349 207.386 14.3888C207.132 14.8691 207.005 15.6086 207.005 16.6074V22.5654H203.692V10.1004H206.832V12.2732C207.34 11.4422 207.783 10.8742 208.16 10.5693C208.776 10.0584 209.576 9.80305 210.561 9.80305C210.623 9.80305 210.673 9.80686 210.711 9.81449C210.758 9.81449 210.854 9.8183 211 9.82592V13.1652C210.792 13.1423 210.607 13.1271 210.446 13.1194C210.284 13.1118 210.153 13.108 210.053 13.108Z" fill="#272726"/>
<path d="M0 22L10.1647 6H27L10.9059 22H0Z" fill="#C398F9"/>
</svg>
